<?xml version="1.0" encoding="UTF-8"?>
<svg xmlns="http://www.w3.org/2000/svg" xmlns:xlink="http://www.w3.org/1999/xlink" width="32px" height="32px" viewBox="0 0 32 32" version="1.1">
<g id="surface416045">
<path style=" stroke:none;fill-rule:nonzero;fill:rgb(100%,100%,100%);fill-opacity:1;" d="M 16 1.921875 C 8.222656 1.921875 1.921875 8.222656 1.921875 16 C 1.921875 23.058594 7.121094 28.886719 13.894531 29.90625 L 13.894531 19.730469 L 10.414062 19.730469 L 10.414062 16.03125 L 13.894531 16.03125 L 13.894531 13.566406 C 13.894531 9.492188 15.882812 7.699219 19.269531 7.699219 C 20.894531 7.699219 21.753906 7.820312 22.160156 7.875 L 22.160156 11.105469 L 19.847656 11.105469 C 18.410156 11.105469 17.90625 12.46875 17.90625 14.007812 L 17.90625 16.03125 L 22.121094 16.03125 L 21.550781 19.730469 L 17.90625 19.730469 L 17.90625 29.9375 C 24.777344 29.003906 30.078125 23.128906 30.078125 16 C 30.078125 8.222656 23.777344 1.921875 16 1.921875 Z M 16 1.921875 "/>
</g>
</svg>
